<?xml version="1.0" encoding="UTF-8"?>
<svg version="1.1" xmlns="http://www.w3.org/2000/svg" width="500" height="500">
<path d="M0 0 C165 0 330 0 500 0 C500 165 500 330 500 500 C335 500 170 500 0 500 C0 335 0 170 0 0 Z " fill="#CBE5F6" transform="translate(0,0)"/>
<path d="M0 0 C4.29 0 8.58 0 13 0 C13.09294778 11.8052644 13.16389049 23.6104408 13.20724869 35.41599751 C13.22806533 40.8986389 13.25627437 46.38102874 13.30175781 51.86352539 C13.34542726 57.16091042 13.36918159 62.45805446 13.37950897 67.7556057 C13.38686259 69.77009051 13.40122197 71.7845631 13.42292023 73.79894447 C13.66508713 97.22636433 13.66508713 97.22636433 6.5 106.5625 C2.35310721 110.60572047 -0.53541713 111.29213426 -6.3125 111.3125 C-12.34464402 111.19091143 -17.05370282 111.05688206 -21.45703125 106.48828125 C-27.32237171 98.96644695 -27.27315908 91.24266475 -27.125 82.0625 C-27.11597656 80.99708984 -27.10695312 79.93167969 -27.09765625 78.83398438 C-27.07423539 76.22255839 -27.03836937 73.61124913 -27 71 C-22.71 71 -18.42 71 -14 71 C-13.95101562 72.68609375 -13.90203125 74.3721875 -13.8515625 76.109375 C-13.77652663 78.32293316 -13.70097915 80.53647402 -13.625 82.75 C-13.5940625 83.86117187 -13.563125 84.97234375 -13.53125 86.1171875 C-13.47324219 87.72207031 -13.47324219 87.72207031 -13.4140625 89.359375 C-13.3826416 90.34389648 -13.3512207 91.32841797 -13.31884766 92.34277344 C-12.99897742 95.00852201 -12.35631379 96.70616405 -11 99 C-7.62599422 99.41725678 -7.62599422 99.41725678 -4 99 C-0.25080278 94.71970821 -0.55864724 90.19091776 -0.56762695 84.8034668 C-0.5574353 83.88590103 -0.54724365 82.96833527 -0.53674316 82.02296448 C-0.50661458 78.99832044 -0.49734733 75.97399313 -0.48828125 72.94921875 C-0.47143449 70.84885099 -0.45328425 68.74849331 -0.43388367 66.64814758 C-0.38637743 61.12607982 -0.35657197 55.60405293 -0.33044434 50.08184814 C-0.30064208 44.44445726 -0.25411056 38.80720724 -0.20898438 33.16992188 C-0.12294407 22.11335492 -0.0556019 11.05675899 0 0 Z " fill="#F1550E" transform="translate(192,105)"/>
<path d="M0 0 C4.29 0 8.58 0 13 0 C13 36.3 13 72.6 13 110 C8.71 110 4.42 110 0 110 C0 73.7 0 37.4 0 0 Z " fill="#FA4E01" transform="translate(104,105)"/>
<path d="M0 0 C2.47923801 -0.02685095 4.9581884 -0.04676547 7.4375 -0.0625 C8.14455078 -0.07087891 8.85160156 -0.07925781 9.58007812 -0.08789062 C11.38693559 -0.09653588 13.19387603 -0.05220011 15 0 C16.57477774 1.57477774 16.12597352 3.14041927 16.12698364 5.32751465 C16.12980347 6.26141525 16.13262329 7.19531586 16.13552856 8.15751648 C16.13350433 9.19028214 16.1314801 10.22304779 16.12939453 11.28710938 C16.13114685 12.36829544 16.13289917 13.44948151 16.13470459 14.56343079 C16.13912558 18.15688659 16.13618424 21.75029365 16.1328125 25.34375 C16.13348547 27.82857269 16.13445543 30.31339531 16.13571167 32.79821777 C16.13737858 38.68313375 16.13386577 44.56803187 16.1285609 50.45294523 C16.12480608 55.15369598 16.12613367 59.85442581 16.13037109 64.55517578 C16.13615037 71.0207429 16.13708453 77.48628971 16.13381577 83.95185852 C16.13314625 86.42393498 16.13397577 88.8960123 16.13629532 91.36808777 C16.13882039 94.81637898 16.1349833 98.26460435 16.12939453 101.71289062 C16.13141876 102.74565628 16.13344299 103.77842194 16.13552856 104.84248352 C16.13129883 106.24333443 16.13129883 106.24333443 16.12698364 107.67248535 C16.12660662 108.48881691 16.12622959 109.30514847 16.12584114 110.14621735 C16 112 16 112 15 113 C12.66839945 113.09909302 10.33370058 113.12970504 8 113.125 C6.72125 113.12757813 5.4425 113.13015625 4.125 113.1328125 C1 113 1 113 0 112 C-0.0956161 110.54518505 -0.12188351 109.08574514 -0.12025452 107.62779236 C-0.12231651 106.21215248 -0.12231651 106.21215248 -0.12442017 104.76791382 C-0.12082489 103.72422638 -0.11722961 102.68053894 -0.11352539 101.60522461 C-0.11367142 100.51267868 -0.11381744 99.42013275 -0.1139679 98.29447937 C-0.11326822 94.66374767 -0.10547329 91.03306654 -0.09765625 87.40234375 C-0.09579226 84.89270557 -0.09436827 82.38306702 -0.09336853 79.87342834 C-0.08993348 73.93065407 -0.08204273 67.98789616 -0.07201904 62.04513031 C-0.05976253 54.61798075 -0.05437792 47.19082895 -0.04882812 39.76367188 C-0.03808811 26.50910527 -0.02120082 13.25455379 0 0 Z M1 1 C1 37.3 1 73.6 1 111 C5.29 111 9.58 111 14 111 C14 74.7 14 38.4 14 1 C9.71 1 5.42 1 1 1 Z " fill="#EDDBD5" transform="translate(103,104)"/>
<path d="M0 0 C4.29 0 8.58 0 13 0 C13 36.3 13 72.6 13 110 C8.71 110 4.42 110 0 110 C0 73.7 0 37.4 0 0 Z M1 2 C1 36.98 1 71.96 1 108 C4.3 108 7.6 108 11 108 C11 73.02 11 38.04 11 2 C7.7 2 4.4 2 1 2 Z " fill="#D45F2B" transform="translate(104,105)"/>
<path d="M0 0 C0.66 0 1.32 0 2 0 C2.06946484 12.18695834 2.12279346 24.37386969 2.15543652 36.56098557 C2.17110236 42.21976456 2.19235759 47.87840825 2.22631836 53.53710938 C2.25887876 58.99654727 2.27684609 64.4558549 2.28463173 69.91538239 C2.29018119 71.99983013 2.30101773 74.08427063 2.31719017 76.16866302 C2.33892014 79.08493033 2.34196876 82.00065714 2.34057617 84.91699219 C2.351362 85.78158051 2.36214783 86.64616882 2.3732605 87.53695679 C2.36913651 88.33338593 2.36501251 89.12981506 2.36076355 89.95037842 C2.36352893 90.63987957 2.36629431 91.32938072 2.36914349 92.03977585 C2 94 2 94 -1 98 C-0.67 65.66 -0.34 33.32 0 0 Z " fill="#DFC5BD" transform="translate(190,105)"/>
<path d="M0 0 C3.3 0 6.6 0 10 0 C10 3.96 10 7.92 10 12 C6.7 12 3.4 12 0 12 C0 8.04 0 4.08 0 0 Z " fill="#DD571B" transform="translate(137,203)"/>
<path d="M0 0 C1.98 0 3.96 0 6 0 C6 2.64 6 5.28 6 8 C4.02 8 2.04 8 0 8 C0 5.36 0 2.72 0 0 Z " fill="#FA4E00" transform="translate(139,205)"/>
<path d="M0 0 C1.2065625 0.0309375 1.2065625 0.0309375 2.4375 0.0625 C-0.04684437 2.40540892 -1.33981593 3.04232934 -4.796875 3.35546875 C-5.95703125 3.32066406 -7.1171875 3.28585938 -8.3125 3.25 C-9.48296875 3.22292969 -10.6534375 3.19585937 -11.859375 3.16796875 C-12.75140625 3.13316406 -13.6434375 3.09835938 -14.5625 3.0625 C-14.5625 2.7325 -14.5625 2.4025 -14.5625 2.0625 C-13.78003906 2.00191406 -12.99757812 1.94132813 -12.19140625 1.87890625 C-11.17949219 1.79511719 -10.16757813 1.71132812 -9.125 1.625 C-8.11566406 1.54378906 -7.10632813 1.46257812 -6.06640625 1.37890625 C-3.14883217 1.01022684 -2.96221017 0.07224903 0 0 Z " fill="#DB6632" transform="translate(193.5625,212.9375)"/>
<path d="M0 0 C0.33 0 0.66 0 1 0 C1.25 7.625 1.25 7.625 -1 11 C-1.66 11 -2.32 11 -3 11 C-2.01 7.37 -1.02 3.74 0 0 Z " fill="#E7D4CF" transform="translate(204,197)"/>
</svg>
